G04 #@! TF.GenerationSoftware,KiCad,Pcbnew,9.0.6*
G04 #@! TF.CreationDate,2026-02-28T01:29:14-05:00*
G04 #@! TF.ProjectId,Main,4d61696e-2e6b-4696-9361-645f70636258,rev?*
G04 #@! TF.SameCoordinates,Original*
G04 #@! TF.FileFunction,Legend,Top*
G04 #@! TF.FilePolarity,Positive*
%FSLAX46Y46*%
G04 Gerber Fmt 4.6, Leading zero omitted, Abs format (unit mm)*
G04 Created by KiCad (PCBNEW 9.0.6) date 2026-02-28 01:29:14*
%MOMM*%
%LPD*%
G01*
G04 APERTURE LIST*
%ADD10C,0.150000*%
%ADD11C,0.254000*%
%ADD12C,0.120000*%
%ADD13C,0.200000*%
%ADD14C,0.250000*%
G04 APERTURE END LIST*
D10*
X105888533Y-57848380D02*
X105840914Y-57896000D01*
X105840914Y-57896000D02*
X105698057Y-57943619D01*
X105698057Y-57943619D02*
X105602819Y-57943619D01*
X105602819Y-57943619D02*
X105459962Y-57896000D01*
X105459962Y-57896000D02*
X105364724Y-57800761D01*
X105364724Y-57800761D02*
X105317105Y-57705523D01*
X105317105Y-57705523D02*
X105269486Y-57515047D01*
X105269486Y-57515047D02*
X105269486Y-57372190D01*
X105269486Y-57372190D02*
X105317105Y-57181714D01*
X105317105Y-57181714D02*
X105364724Y-57086476D01*
X105364724Y-57086476D02*
X105459962Y-56991238D01*
X105459962Y-56991238D02*
X105602819Y-56943619D01*
X105602819Y-56943619D02*
X105698057Y-56943619D01*
X105698057Y-56943619D02*
X105840914Y-56991238D01*
X105840914Y-56991238D02*
X105888533Y-57038857D01*
X106745676Y-56943619D02*
X106555200Y-56943619D01*
X106555200Y-56943619D02*
X106459962Y-56991238D01*
X106459962Y-56991238D02*
X106412343Y-57038857D01*
X106412343Y-57038857D02*
X106317105Y-57181714D01*
X106317105Y-57181714D02*
X106269486Y-57372190D01*
X106269486Y-57372190D02*
X106269486Y-57753142D01*
X106269486Y-57753142D02*
X106317105Y-57848380D01*
X106317105Y-57848380D02*
X106364724Y-57896000D01*
X106364724Y-57896000D02*
X106459962Y-57943619D01*
X106459962Y-57943619D02*
X106650438Y-57943619D01*
X106650438Y-57943619D02*
X106745676Y-57896000D01*
X106745676Y-57896000D02*
X106793295Y-57848380D01*
X106793295Y-57848380D02*
X106840914Y-57753142D01*
X106840914Y-57753142D02*
X106840914Y-57515047D01*
X106840914Y-57515047D02*
X106793295Y-57419809D01*
X106793295Y-57419809D02*
X106745676Y-57372190D01*
X106745676Y-57372190D02*
X106650438Y-57324571D01*
X106650438Y-57324571D02*
X106459962Y-57324571D01*
X106459962Y-57324571D02*
X106364724Y-57372190D01*
X106364724Y-57372190D02*
X106317105Y-57419809D01*
X106317105Y-57419809D02*
X106269486Y-57515047D01*
X114946133Y-54478380D02*
X114898514Y-54526000D01*
X114898514Y-54526000D02*
X114755657Y-54573619D01*
X114755657Y-54573619D02*
X114660419Y-54573619D01*
X114660419Y-54573619D02*
X114517562Y-54526000D01*
X114517562Y-54526000D02*
X114422324Y-54430761D01*
X114422324Y-54430761D02*
X114374705Y-54335523D01*
X114374705Y-54335523D02*
X114327086Y-54145047D01*
X114327086Y-54145047D02*
X114327086Y-54002190D01*
X114327086Y-54002190D02*
X114374705Y-53811714D01*
X114374705Y-53811714D02*
X114422324Y-53716476D01*
X114422324Y-53716476D02*
X114517562Y-53621238D01*
X114517562Y-53621238D02*
X114660419Y-53573619D01*
X114660419Y-53573619D02*
X114755657Y-53573619D01*
X114755657Y-53573619D02*
X114898514Y-53621238D01*
X114898514Y-53621238D02*
X114946133Y-53668857D01*
X115422324Y-54573619D02*
X115612800Y-54573619D01*
X115612800Y-54573619D02*
X115708038Y-54526000D01*
X115708038Y-54526000D02*
X115755657Y-54478380D01*
X115755657Y-54478380D02*
X115850895Y-54335523D01*
X115850895Y-54335523D02*
X115898514Y-54145047D01*
X115898514Y-54145047D02*
X115898514Y-53764095D01*
X115898514Y-53764095D02*
X115850895Y-53668857D01*
X115850895Y-53668857D02*
X115803276Y-53621238D01*
X115803276Y-53621238D02*
X115708038Y-53573619D01*
X115708038Y-53573619D02*
X115517562Y-53573619D01*
X115517562Y-53573619D02*
X115422324Y-53621238D01*
X115422324Y-53621238D02*
X115374705Y-53668857D01*
X115374705Y-53668857D02*
X115327086Y-53764095D01*
X115327086Y-53764095D02*
X115327086Y-54002190D01*
X115327086Y-54002190D02*
X115374705Y-54097428D01*
X115374705Y-54097428D02*
X115422324Y-54145047D01*
X115422324Y-54145047D02*
X115517562Y-54192666D01*
X115517562Y-54192666D02*
X115708038Y-54192666D01*
X115708038Y-54192666D02*
X115803276Y-54145047D01*
X115803276Y-54145047D02*
X115850895Y-54097428D01*
X115850895Y-54097428D02*
X115898514Y-54002190D01*
X125177219Y-54740133D02*
X125891504Y-54740133D01*
X125891504Y-54740133D02*
X126034361Y-54787752D01*
X126034361Y-54787752D02*
X126129600Y-54882990D01*
X126129600Y-54882990D02*
X126177219Y-55025847D01*
X126177219Y-55025847D02*
X126177219Y-55121085D01*
X125272457Y-54311561D02*
X125224838Y-54263942D01*
X125224838Y-54263942D02*
X125177219Y-54168704D01*
X125177219Y-54168704D02*
X125177219Y-53930609D01*
X125177219Y-53930609D02*
X125224838Y-53835371D01*
X125224838Y-53835371D02*
X125272457Y-53787752D01*
X125272457Y-53787752D02*
X125367695Y-53740133D01*
X125367695Y-53740133D02*
X125462933Y-53740133D01*
X125462933Y-53740133D02*
X125605790Y-53787752D01*
X125605790Y-53787752D02*
X126177219Y-54359180D01*
X126177219Y-54359180D02*
X126177219Y-53740133D01*
X114439867Y-65324000D02*
X114582724Y-65371619D01*
X114582724Y-65371619D02*
X114820819Y-65371619D01*
X114820819Y-65371619D02*
X114916057Y-65324000D01*
X114916057Y-65324000D02*
X114963676Y-65276380D01*
X114963676Y-65276380D02*
X115011295Y-65181142D01*
X115011295Y-65181142D02*
X115011295Y-65085904D01*
X115011295Y-65085904D02*
X114963676Y-64990666D01*
X114963676Y-64990666D02*
X114916057Y-64943047D01*
X114916057Y-64943047D02*
X114820819Y-64895428D01*
X114820819Y-64895428D02*
X114630343Y-64847809D01*
X114630343Y-64847809D02*
X114535105Y-64800190D01*
X114535105Y-64800190D02*
X114487486Y-64752571D01*
X114487486Y-64752571D02*
X114439867Y-64657333D01*
X114439867Y-64657333D02*
X114439867Y-64562095D01*
X114439867Y-64562095D02*
X114487486Y-64466857D01*
X114487486Y-64466857D02*
X114535105Y-64419238D01*
X114535105Y-64419238D02*
X114630343Y-64371619D01*
X114630343Y-64371619D02*
X114868438Y-64371619D01*
X114868438Y-64371619D02*
X115011295Y-64419238D01*
X115344629Y-64371619D02*
X115582724Y-65371619D01*
X115582724Y-65371619D02*
X115773200Y-64657333D01*
X115773200Y-64657333D02*
X115963676Y-65371619D01*
X115963676Y-65371619D02*
X116201772Y-64371619D01*
X117011295Y-64704952D02*
X117011295Y-65371619D01*
X116773200Y-64324000D02*
X116535105Y-65038285D01*
X116535105Y-65038285D02*
X117154152Y-65038285D01*
X111675942Y-64741980D02*
X111628323Y-64789600D01*
X111628323Y-64789600D02*
X111485466Y-64837219D01*
X111485466Y-64837219D02*
X111390228Y-64837219D01*
X111390228Y-64837219D02*
X111247371Y-64789600D01*
X111247371Y-64789600D02*
X111152133Y-64694361D01*
X111152133Y-64694361D02*
X111104514Y-64599123D01*
X111104514Y-64599123D02*
X111056895Y-64408647D01*
X111056895Y-64408647D02*
X111056895Y-64265790D01*
X111056895Y-64265790D02*
X111104514Y-64075314D01*
X111104514Y-64075314D02*
X111152133Y-63980076D01*
X111152133Y-63980076D02*
X111247371Y-63884838D01*
X111247371Y-63884838D02*
X111390228Y-63837219D01*
X111390228Y-63837219D02*
X111485466Y-63837219D01*
X111485466Y-63837219D02*
X111628323Y-63884838D01*
X111628323Y-63884838D02*
X111675942Y-63932457D01*
X112628323Y-64837219D02*
X112056895Y-64837219D01*
X112342609Y-64837219D02*
X112342609Y-63837219D01*
X112342609Y-63837219D02*
X112247371Y-63980076D01*
X112247371Y-63980076D02*
X112152133Y-64075314D01*
X112152133Y-64075314D02*
X112056895Y-64122933D01*
X113485466Y-64170552D02*
X113485466Y-64837219D01*
X113247371Y-63789600D02*
X113009276Y-64503885D01*
X113009276Y-64503885D02*
X113628323Y-64503885D01*
X101007942Y-64792780D02*
X100960323Y-64840400D01*
X100960323Y-64840400D02*
X100817466Y-64888019D01*
X100817466Y-64888019D02*
X100722228Y-64888019D01*
X100722228Y-64888019D02*
X100579371Y-64840400D01*
X100579371Y-64840400D02*
X100484133Y-64745161D01*
X100484133Y-64745161D02*
X100436514Y-64649923D01*
X100436514Y-64649923D02*
X100388895Y-64459447D01*
X100388895Y-64459447D02*
X100388895Y-64316590D01*
X100388895Y-64316590D02*
X100436514Y-64126114D01*
X100436514Y-64126114D02*
X100484133Y-64030876D01*
X100484133Y-64030876D02*
X100579371Y-63935638D01*
X100579371Y-63935638D02*
X100722228Y-63888019D01*
X100722228Y-63888019D02*
X100817466Y-63888019D01*
X100817466Y-63888019D02*
X100960323Y-63935638D01*
X100960323Y-63935638D02*
X101007942Y-63983257D01*
X101960323Y-64888019D02*
X101388895Y-64888019D01*
X101674609Y-64888019D02*
X101674609Y-63888019D01*
X101674609Y-63888019D02*
X101579371Y-64030876D01*
X101579371Y-64030876D02*
X101484133Y-64126114D01*
X101484133Y-64126114D02*
X101388895Y-64173733D01*
X102293657Y-63888019D02*
X102912704Y-63888019D01*
X102912704Y-63888019D02*
X102579371Y-64268971D01*
X102579371Y-64268971D02*
X102722228Y-64268971D01*
X102722228Y-64268971D02*
X102817466Y-64316590D01*
X102817466Y-64316590D02*
X102865085Y-64364209D01*
X102865085Y-64364209D02*
X102912704Y-64459447D01*
X102912704Y-64459447D02*
X102912704Y-64697542D01*
X102912704Y-64697542D02*
X102865085Y-64792780D01*
X102865085Y-64792780D02*
X102817466Y-64840400D01*
X102817466Y-64840400D02*
X102722228Y-64888019D01*
X102722228Y-64888019D02*
X102436514Y-64888019D01*
X102436514Y-64888019D02*
X102341276Y-64840400D01*
X102341276Y-64840400D02*
X102293657Y-64792780D01*
D11*
X107609918Y-63725762D02*
X106339918Y-63725762D01*
X107488965Y-62395285D02*
X107549442Y-62455761D01*
X107549442Y-62455761D02*
X107609918Y-62637190D01*
X107609918Y-62637190D02*
X107609918Y-62758142D01*
X107609918Y-62758142D02*
X107549442Y-62939571D01*
X107549442Y-62939571D02*
X107428489Y-63060523D01*
X107428489Y-63060523D02*
X107307537Y-63121000D01*
X107307537Y-63121000D02*
X107065632Y-63181476D01*
X107065632Y-63181476D02*
X106884203Y-63181476D01*
X106884203Y-63181476D02*
X106642299Y-63121000D01*
X106642299Y-63121000D02*
X106521346Y-63060523D01*
X106521346Y-63060523D02*
X106400394Y-62939571D01*
X106400394Y-62939571D02*
X106339918Y-62758142D01*
X106339918Y-62758142D02*
X106339918Y-62637190D01*
X106339918Y-62637190D02*
X106400394Y-62455761D01*
X106400394Y-62455761D02*
X106460870Y-62395285D01*
X106460870Y-61911476D02*
X106400394Y-61851000D01*
X106400394Y-61851000D02*
X106339918Y-61730047D01*
X106339918Y-61730047D02*
X106339918Y-61427666D01*
X106339918Y-61427666D02*
X106400394Y-61306714D01*
X106400394Y-61306714D02*
X106460870Y-61246238D01*
X106460870Y-61246238D02*
X106581822Y-61185761D01*
X106581822Y-61185761D02*
X106702775Y-61185761D01*
X106702775Y-61185761D02*
X106884203Y-61246238D01*
X106884203Y-61246238D02*
X107609918Y-61971952D01*
X107609918Y-61971952D02*
X107609918Y-61185761D01*
D10*
X102225819Y-69675333D02*
X102940104Y-69675333D01*
X102940104Y-69675333D02*
X103082961Y-69722952D01*
X103082961Y-69722952D02*
X103178200Y-69818190D01*
X103178200Y-69818190D02*
X103225819Y-69961047D01*
X103225819Y-69961047D02*
X103225819Y-70056285D01*
X102559152Y-68770571D02*
X103225819Y-68770571D01*
X102178200Y-69008666D02*
X102892485Y-69246761D01*
X102892485Y-69246761D02*
X102892485Y-68627714D01*
X99941142Y-48229980D02*
X99893523Y-48277600D01*
X99893523Y-48277600D02*
X99750666Y-48325219D01*
X99750666Y-48325219D02*
X99655428Y-48325219D01*
X99655428Y-48325219D02*
X99512571Y-48277600D01*
X99512571Y-48277600D02*
X99417333Y-48182361D01*
X99417333Y-48182361D02*
X99369714Y-48087123D01*
X99369714Y-48087123D02*
X99322095Y-47896647D01*
X99322095Y-47896647D02*
X99322095Y-47753790D01*
X99322095Y-47753790D02*
X99369714Y-47563314D01*
X99369714Y-47563314D02*
X99417333Y-47468076D01*
X99417333Y-47468076D02*
X99512571Y-47372838D01*
X99512571Y-47372838D02*
X99655428Y-47325219D01*
X99655428Y-47325219D02*
X99750666Y-47325219D01*
X99750666Y-47325219D02*
X99893523Y-47372838D01*
X99893523Y-47372838D02*
X99941142Y-47420457D01*
X100893523Y-48325219D02*
X100322095Y-48325219D01*
X100607809Y-48325219D02*
X100607809Y-47325219D01*
X100607809Y-47325219D02*
X100512571Y-47468076D01*
X100512571Y-47468076D02*
X100417333Y-47563314D01*
X100417333Y-47563314D02*
X100322095Y-47610933D01*
X101845904Y-48325219D02*
X101274476Y-48325219D01*
X101560190Y-48325219D02*
X101560190Y-47325219D01*
X101560190Y-47325219D02*
X101464952Y-47468076D01*
X101464952Y-47468076D02*
X101369714Y-47563314D01*
X101369714Y-47563314D02*
X101274476Y-47610933D01*
X116724133Y-51803180D02*
X116676514Y-51850800D01*
X116676514Y-51850800D02*
X116533657Y-51898419D01*
X116533657Y-51898419D02*
X116438419Y-51898419D01*
X116438419Y-51898419D02*
X116295562Y-51850800D01*
X116295562Y-51850800D02*
X116200324Y-51755561D01*
X116200324Y-51755561D02*
X116152705Y-51660323D01*
X116152705Y-51660323D02*
X116105086Y-51469847D01*
X116105086Y-51469847D02*
X116105086Y-51326990D01*
X116105086Y-51326990D02*
X116152705Y-51136514D01*
X116152705Y-51136514D02*
X116200324Y-51041276D01*
X116200324Y-51041276D02*
X116295562Y-50946038D01*
X116295562Y-50946038D02*
X116438419Y-50898419D01*
X116438419Y-50898419D02*
X116533657Y-50898419D01*
X116533657Y-50898419D02*
X116676514Y-50946038D01*
X116676514Y-50946038D02*
X116724133Y-50993657D01*
X117057467Y-50898419D02*
X117676514Y-50898419D01*
X117676514Y-50898419D02*
X117343181Y-51279371D01*
X117343181Y-51279371D02*
X117486038Y-51279371D01*
X117486038Y-51279371D02*
X117581276Y-51326990D01*
X117581276Y-51326990D02*
X117628895Y-51374609D01*
X117628895Y-51374609D02*
X117676514Y-51469847D01*
X117676514Y-51469847D02*
X117676514Y-51707942D01*
X117676514Y-51707942D02*
X117628895Y-51803180D01*
X117628895Y-51803180D02*
X117581276Y-51850800D01*
X117581276Y-51850800D02*
X117486038Y-51898419D01*
X117486038Y-51898419D02*
X117200324Y-51898419D01*
X117200324Y-51898419D02*
X117105086Y-51850800D01*
X117105086Y-51850800D02*
X117057467Y-51803180D01*
X107986533Y-38455980D02*
X107938914Y-38503600D01*
X107938914Y-38503600D02*
X107796057Y-38551219D01*
X107796057Y-38551219D02*
X107700819Y-38551219D01*
X107700819Y-38551219D02*
X107557962Y-38503600D01*
X107557962Y-38503600D02*
X107462724Y-38408361D01*
X107462724Y-38408361D02*
X107415105Y-38313123D01*
X107415105Y-38313123D02*
X107367486Y-38122647D01*
X107367486Y-38122647D02*
X107367486Y-37979790D01*
X107367486Y-37979790D02*
X107415105Y-37789314D01*
X107415105Y-37789314D02*
X107462724Y-37694076D01*
X107462724Y-37694076D02*
X107557962Y-37598838D01*
X107557962Y-37598838D02*
X107700819Y-37551219D01*
X107700819Y-37551219D02*
X107796057Y-37551219D01*
X107796057Y-37551219D02*
X107938914Y-37598838D01*
X107938914Y-37598838D02*
X107986533Y-37646457D01*
X108319867Y-37551219D02*
X108986533Y-37551219D01*
X108986533Y-37551219D02*
X108557962Y-38551219D01*
D11*
X107978837Y-48198118D02*
X107978837Y-46928118D01*
X109309314Y-48077165D02*
X109248838Y-48137642D01*
X109248838Y-48137642D02*
X109067409Y-48198118D01*
X109067409Y-48198118D02*
X108946457Y-48198118D01*
X108946457Y-48198118D02*
X108765028Y-48137642D01*
X108765028Y-48137642D02*
X108644076Y-48016689D01*
X108644076Y-48016689D02*
X108583599Y-47895737D01*
X108583599Y-47895737D02*
X108523123Y-47653832D01*
X108523123Y-47653832D02*
X108523123Y-47472403D01*
X108523123Y-47472403D02*
X108583599Y-47230499D01*
X108583599Y-47230499D02*
X108644076Y-47109546D01*
X108644076Y-47109546D02*
X108765028Y-46988594D01*
X108765028Y-46988594D02*
X108946457Y-46928118D01*
X108946457Y-46928118D02*
X109067409Y-46928118D01*
X109067409Y-46928118D02*
X109248838Y-46988594D01*
X109248838Y-46988594D02*
X109309314Y-47049070D01*
X110518838Y-48198118D02*
X109793123Y-48198118D01*
X110155980Y-48198118D02*
X110155980Y-46928118D01*
X110155980Y-46928118D02*
X110035028Y-47109546D01*
X110035028Y-47109546D02*
X109914076Y-47230499D01*
X109914076Y-47230499D02*
X109793123Y-47290975D01*
D10*
X100402133Y-43454780D02*
X100354514Y-43502400D01*
X100354514Y-43502400D02*
X100211657Y-43550019D01*
X100211657Y-43550019D02*
X100116419Y-43550019D01*
X100116419Y-43550019D02*
X99973562Y-43502400D01*
X99973562Y-43502400D02*
X99878324Y-43407161D01*
X99878324Y-43407161D02*
X99830705Y-43311923D01*
X99830705Y-43311923D02*
X99783086Y-43121447D01*
X99783086Y-43121447D02*
X99783086Y-42978590D01*
X99783086Y-42978590D02*
X99830705Y-42788114D01*
X99830705Y-42788114D02*
X99878324Y-42692876D01*
X99878324Y-42692876D02*
X99973562Y-42597638D01*
X99973562Y-42597638D02*
X100116419Y-42550019D01*
X100116419Y-42550019D02*
X100211657Y-42550019D01*
X100211657Y-42550019D02*
X100354514Y-42597638D01*
X100354514Y-42597638D02*
X100402133Y-42645257D01*
X101306895Y-42550019D02*
X100830705Y-42550019D01*
X100830705Y-42550019D02*
X100783086Y-43026209D01*
X100783086Y-43026209D02*
X100830705Y-42978590D01*
X100830705Y-42978590D02*
X100925943Y-42930971D01*
X100925943Y-42930971D02*
X101164038Y-42930971D01*
X101164038Y-42930971D02*
X101259276Y-42978590D01*
X101259276Y-42978590D02*
X101306895Y-43026209D01*
X101306895Y-43026209D02*
X101354514Y-43121447D01*
X101354514Y-43121447D02*
X101354514Y-43359542D01*
X101354514Y-43359542D02*
X101306895Y-43454780D01*
X101306895Y-43454780D02*
X101259276Y-43502400D01*
X101259276Y-43502400D02*
X101164038Y-43550019D01*
X101164038Y-43550019D02*
X100925943Y-43550019D01*
X100925943Y-43550019D02*
X100830705Y-43502400D01*
X100830705Y-43502400D02*
X100783086Y-43454780D01*
X96759733Y-46328419D02*
X96426400Y-45852228D01*
X96188305Y-46328419D02*
X96188305Y-45328419D01*
X96188305Y-45328419D02*
X96569257Y-45328419D01*
X96569257Y-45328419D02*
X96664495Y-45376038D01*
X96664495Y-45376038D02*
X96712114Y-45423657D01*
X96712114Y-45423657D02*
X96759733Y-45518895D01*
X96759733Y-45518895D02*
X96759733Y-45661752D01*
X96759733Y-45661752D02*
X96712114Y-45756990D01*
X96712114Y-45756990D02*
X96664495Y-45804609D01*
X96664495Y-45804609D02*
X96569257Y-45852228D01*
X96569257Y-45852228D02*
X96188305Y-45852228D01*
X97616876Y-45328419D02*
X97426400Y-45328419D01*
X97426400Y-45328419D02*
X97331162Y-45376038D01*
X97331162Y-45376038D02*
X97283543Y-45423657D01*
X97283543Y-45423657D02*
X97188305Y-45566514D01*
X97188305Y-45566514D02*
X97140686Y-45756990D01*
X97140686Y-45756990D02*
X97140686Y-46137942D01*
X97140686Y-46137942D02*
X97188305Y-46233180D01*
X97188305Y-46233180D02*
X97235924Y-46280800D01*
X97235924Y-46280800D02*
X97331162Y-46328419D01*
X97331162Y-46328419D02*
X97521638Y-46328419D01*
X97521638Y-46328419D02*
X97616876Y-46280800D01*
X97616876Y-46280800D02*
X97664495Y-46233180D01*
X97664495Y-46233180D02*
X97712114Y-46137942D01*
X97712114Y-46137942D02*
X97712114Y-45899847D01*
X97712114Y-45899847D02*
X97664495Y-45804609D01*
X97664495Y-45804609D02*
X97616876Y-45756990D01*
X97616876Y-45756990D02*
X97521638Y-45709371D01*
X97521638Y-45709371D02*
X97331162Y-45709371D01*
X97331162Y-45709371D02*
X97235924Y-45756990D01*
X97235924Y-45756990D02*
X97188305Y-45804609D01*
X97188305Y-45804609D02*
X97140686Y-45899847D01*
X95540533Y-56387219D02*
X95207200Y-55911028D01*
X94969105Y-56387219D02*
X94969105Y-55387219D01*
X94969105Y-55387219D02*
X95350057Y-55387219D01*
X95350057Y-55387219D02*
X95445295Y-55434838D01*
X95445295Y-55434838D02*
X95492914Y-55482457D01*
X95492914Y-55482457D02*
X95540533Y-55577695D01*
X95540533Y-55577695D02*
X95540533Y-55720552D01*
X95540533Y-55720552D02*
X95492914Y-55815790D01*
X95492914Y-55815790D02*
X95445295Y-55863409D01*
X95445295Y-55863409D02*
X95350057Y-55911028D01*
X95350057Y-55911028D02*
X94969105Y-55911028D01*
X95921486Y-55482457D02*
X95969105Y-55434838D01*
X95969105Y-55434838D02*
X96064343Y-55387219D01*
X96064343Y-55387219D02*
X96302438Y-55387219D01*
X96302438Y-55387219D02*
X96397676Y-55434838D01*
X96397676Y-55434838D02*
X96445295Y-55482457D01*
X96445295Y-55482457D02*
X96492914Y-55577695D01*
X96492914Y-55577695D02*
X96492914Y-55672933D01*
X96492914Y-55672933D02*
X96445295Y-55815790D01*
X96445295Y-55815790D02*
X95873867Y-56387219D01*
X95873867Y-56387219D02*
X96492914Y-56387219D01*
X90701905Y-57643219D02*
X90701905Y-56643219D01*
X90701905Y-56643219D02*
X90940000Y-56643219D01*
X90940000Y-56643219D02*
X91082857Y-56690838D01*
X91082857Y-56690838D02*
X91178095Y-56786076D01*
X91178095Y-56786076D02*
X91225714Y-56881314D01*
X91225714Y-56881314D02*
X91273333Y-57071790D01*
X91273333Y-57071790D02*
X91273333Y-57214647D01*
X91273333Y-57214647D02*
X91225714Y-57405123D01*
X91225714Y-57405123D02*
X91178095Y-57500361D01*
X91178095Y-57500361D02*
X91082857Y-57595600D01*
X91082857Y-57595600D02*
X90940000Y-57643219D01*
X90940000Y-57643219D02*
X90701905Y-57643219D01*
X91654286Y-56738457D02*
X91701905Y-56690838D01*
X91701905Y-56690838D02*
X91797143Y-56643219D01*
X91797143Y-56643219D02*
X92035238Y-56643219D01*
X92035238Y-56643219D02*
X92130476Y-56690838D01*
X92130476Y-56690838D02*
X92178095Y-56738457D01*
X92178095Y-56738457D02*
X92225714Y-56833695D01*
X92225714Y-56833695D02*
X92225714Y-56928933D01*
X92225714Y-56928933D02*
X92178095Y-57071790D01*
X92178095Y-57071790D02*
X91606667Y-57643219D01*
X91606667Y-57643219D02*
X92225714Y-57643219D01*
X90704705Y-62653619D02*
X90704705Y-61653619D01*
X90704705Y-61653619D02*
X90942800Y-61653619D01*
X90942800Y-61653619D02*
X91085657Y-61701238D01*
X91085657Y-61701238D02*
X91180895Y-61796476D01*
X91180895Y-61796476D02*
X91228514Y-61891714D01*
X91228514Y-61891714D02*
X91276133Y-62082190D01*
X91276133Y-62082190D02*
X91276133Y-62225047D01*
X91276133Y-62225047D02*
X91228514Y-62415523D01*
X91228514Y-62415523D02*
X91180895Y-62510761D01*
X91180895Y-62510761D02*
X91085657Y-62606000D01*
X91085657Y-62606000D02*
X90942800Y-62653619D01*
X90942800Y-62653619D02*
X90704705Y-62653619D01*
X91609467Y-61653619D02*
X92228514Y-61653619D01*
X92228514Y-61653619D02*
X91895181Y-62034571D01*
X91895181Y-62034571D02*
X92038038Y-62034571D01*
X92038038Y-62034571D02*
X92133276Y-62082190D01*
X92133276Y-62082190D02*
X92180895Y-62129809D01*
X92180895Y-62129809D02*
X92228514Y-62225047D01*
X92228514Y-62225047D02*
X92228514Y-62463142D01*
X92228514Y-62463142D02*
X92180895Y-62558380D01*
X92180895Y-62558380D02*
X92133276Y-62606000D01*
X92133276Y-62606000D02*
X92038038Y-62653619D01*
X92038038Y-62653619D02*
X91752324Y-62653619D01*
X91752324Y-62653619D02*
X91657086Y-62606000D01*
X91657086Y-62606000D02*
X91609467Y-62558380D01*
X90755505Y-52360019D02*
X90755505Y-51360019D01*
X90755505Y-51360019D02*
X90993600Y-51360019D01*
X90993600Y-51360019D02*
X91136457Y-51407638D01*
X91136457Y-51407638D02*
X91231695Y-51502876D01*
X91231695Y-51502876D02*
X91279314Y-51598114D01*
X91279314Y-51598114D02*
X91326933Y-51788590D01*
X91326933Y-51788590D02*
X91326933Y-51931447D01*
X91326933Y-51931447D02*
X91279314Y-52121923D01*
X91279314Y-52121923D02*
X91231695Y-52217161D01*
X91231695Y-52217161D02*
X91136457Y-52312400D01*
X91136457Y-52312400D02*
X90993600Y-52360019D01*
X90993600Y-52360019D02*
X90755505Y-52360019D01*
X92279314Y-52360019D02*
X91707886Y-52360019D01*
X91993600Y-52360019D02*
X91993600Y-51360019D01*
X91993600Y-51360019D02*
X91898362Y-51502876D01*
X91898362Y-51502876D02*
X91803124Y-51598114D01*
X91803124Y-51598114D02*
X91707886Y-51645733D01*
X95540533Y-59482819D02*
X95207200Y-59006628D01*
X94969105Y-59482819D02*
X94969105Y-58482819D01*
X94969105Y-58482819D02*
X95350057Y-58482819D01*
X95350057Y-58482819D02*
X95445295Y-58530438D01*
X95445295Y-58530438D02*
X95492914Y-58578057D01*
X95492914Y-58578057D02*
X95540533Y-58673295D01*
X95540533Y-58673295D02*
X95540533Y-58816152D01*
X95540533Y-58816152D02*
X95492914Y-58911390D01*
X95492914Y-58911390D02*
X95445295Y-58959009D01*
X95445295Y-58959009D02*
X95350057Y-59006628D01*
X95350057Y-59006628D02*
X94969105Y-59006628D01*
X95873867Y-58482819D02*
X96492914Y-58482819D01*
X96492914Y-58482819D02*
X96159581Y-58863771D01*
X96159581Y-58863771D02*
X96302438Y-58863771D01*
X96302438Y-58863771D02*
X96397676Y-58911390D01*
X96397676Y-58911390D02*
X96445295Y-58959009D01*
X96445295Y-58959009D02*
X96492914Y-59054247D01*
X96492914Y-59054247D02*
X96492914Y-59292342D01*
X96492914Y-59292342D02*
X96445295Y-59387580D01*
X96445295Y-59387580D02*
X96397676Y-59435200D01*
X96397676Y-59435200D02*
X96302438Y-59482819D01*
X96302438Y-59482819D02*
X96016724Y-59482819D01*
X96016724Y-59482819D02*
X95921486Y-59435200D01*
X95921486Y-59435200D02*
X95873867Y-59387580D01*
X95540533Y-64359619D02*
X95207200Y-63883428D01*
X94969105Y-64359619D02*
X94969105Y-63359619D01*
X94969105Y-63359619D02*
X95350057Y-63359619D01*
X95350057Y-63359619D02*
X95445295Y-63407238D01*
X95445295Y-63407238D02*
X95492914Y-63454857D01*
X95492914Y-63454857D02*
X95540533Y-63550095D01*
X95540533Y-63550095D02*
X95540533Y-63692952D01*
X95540533Y-63692952D02*
X95492914Y-63788190D01*
X95492914Y-63788190D02*
X95445295Y-63835809D01*
X95445295Y-63835809D02*
X95350057Y-63883428D01*
X95350057Y-63883428D02*
X94969105Y-63883428D01*
X96397676Y-63692952D02*
X96397676Y-64359619D01*
X96159581Y-63312000D02*
X95921486Y-64026285D01*
X95921486Y-64026285D02*
X96540533Y-64026285D01*
X100366533Y-45971619D02*
X100033200Y-45495428D01*
X99795105Y-45971619D02*
X99795105Y-44971619D01*
X99795105Y-44971619D02*
X100176057Y-44971619D01*
X100176057Y-44971619D02*
X100271295Y-45019238D01*
X100271295Y-45019238D02*
X100318914Y-45066857D01*
X100318914Y-45066857D02*
X100366533Y-45162095D01*
X100366533Y-45162095D02*
X100366533Y-45304952D01*
X100366533Y-45304952D02*
X100318914Y-45400190D01*
X100318914Y-45400190D02*
X100271295Y-45447809D01*
X100271295Y-45447809D02*
X100176057Y-45495428D01*
X100176057Y-45495428D02*
X99795105Y-45495428D01*
X101271295Y-44971619D02*
X100795105Y-44971619D01*
X100795105Y-44971619D02*
X100747486Y-45447809D01*
X100747486Y-45447809D02*
X100795105Y-45400190D01*
X100795105Y-45400190D02*
X100890343Y-45352571D01*
X100890343Y-45352571D02*
X101128438Y-45352571D01*
X101128438Y-45352571D02*
X101223676Y-45400190D01*
X101223676Y-45400190D02*
X101271295Y-45447809D01*
X101271295Y-45447809D02*
X101318914Y-45543047D01*
X101318914Y-45543047D02*
X101318914Y-45781142D01*
X101318914Y-45781142D02*
X101271295Y-45876380D01*
X101271295Y-45876380D02*
X101223676Y-45924000D01*
X101223676Y-45924000D02*
X101128438Y-45971619D01*
X101128438Y-45971619D02*
X100890343Y-45971619D01*
X100890343Y-45971619D02*
X100795105Y-45924000D01*
X100795105Y-45924000D02*
X100747486Y-45876380D01*
X124199428Y-44367390D02*
X124675619Y-44367390D01*
X123675619Y-44700723D02*
X124199428Y-44367390D01*
X124199428Y-44367390D02*
X123675619Y-44034057D01*
X124675619Y-43176914D02*
X124675619Y-43748342D01*
X124675619Y-43462628D02*
X123675619Y-43462628D01*
X123675619Y-43462628D02*
X123818476Y-43557866D01*
X123818476Y-43557866D02*
X123913714Y-43653104D01*
X123913714Y-43653104D02*
X123961333Y-43748342D01*
X75362667Y-56729600D02*
X75505524Y-56777219D01*
X75505524Y-56777219D02*
X75743619Y-56777219D01*
X75743619Y-56777219D02*
X75838857Y-56729600D01*
X75838857Y-56729600D02*
X75886476Y-56681980D01*
X75886476Y-56681980D02*
X75934095Y-56586742D01*
X75934095Y-56586742D02*
X75934095Y-56491504D01*
X75934095Y-56491504D02*
X75886476Y-56396266D01*
X75886476Y-56396266D02*
X75838857Y-56348647D01*
X75838857Y-56348647D02*
X75743619Y-56301028D01*
X75743619Y-56301028D02*
X75553143Y-56253409D01*
X75553143Y-56253409D02*
X75457905Y-56205790D01*
X75457905Y-56205790D02*
X75410286Y-56158171D01*
X75410286Y-56158171D02*
X75362667Y-56062933D01*
X75362667Y-56062933D02*
X75362667Y-55967695D01*
X75362667Y-55967695D02*
X75410286Y-55872457D01*
X75410286Y-55872457D02*
X75457905Y-55824838D01*
X75457905Y-55824838D02*
X75553143Y-55777219D01*
X75553143Y-55777219D02*
X75791238Y-55777219D01*
X75791238Y-55777219D02*
X75934095Y-55824838D01*
X76267429Y-55777219D02*
X76505524Y-56777219D01*
X76505524Y-56777219D02*
X76696000Y-56062933D01*
X76696000Y-56062933D02*
X76886476Y-56777219D01*
X76886476Y-56777219D02*
X77124572Y-55777219D01*
X77410286Y-55777219D02*
X78029333Y-55777219D01*
X78029333Y-55777219D02*
X77696000Y-56158171D01*
X77696000Y-56158171D02*
X77838857Y-56158171D01*
X77838857Y-56158171D02*
X77934095Y-56205790D01*
X77934095Y-56205790D02*
X77981714Y-56253409D01*
X77981714Y-56253409D02*
X78029333Y-56348647D01*
X78029333Y-56348647D02*
X78029333Y-56586742D01*
X78029333Y-56586742D02*
X77981714Y-56681980D01*
X77981714Y-56681980D02*
X77934095Y-56729600D01*
X77934095Y-56729600D02*
X77838857Y-56777219D01*
X77838857Y-56777219D02*
X77553143Y-56777219D01*
X77553143Y-56777219D02*
X77457905Y-56729600D01*
X77457905Y-56729600D02*
X77410286Y-56681980D01*
X75362667Y-41179600D02*
X75505524Y-41227219D01*
X75505524Y-41227219D02*
X75743619Y-41227219D01*
X75743619Y-41227219D02*
X75838857Y-41179600D01*
X75838857Y-41179600D02*
X75886476Y-41131980D01*
X75886476Y-41131980D02*
X75934095Y-41036742D01*
X75934095Y-41036742D02*
X75934095Y-40941504D01*
X75934095Y-40941504D02*
X75886476Y-40846266D01*
X75886476Y-40846266D02*
X75838857Y-40798647D01*
X75838857Y-40798647D02*
X75743619Y-40751028D01*
X75743619Y-40751028D02*
X75553143Y-40703409D01*
X75553143Y-40703409D02*
X75457905Y-40655790D01*
X75457905Y-40655790D02*
X75410286Y-40608171D01*
X75410286Y-40608171D02*
X75362667Y-40512933D01*
X75362667Y-40512933D02*
X75362667Y-40417695D01*
X75362667Y-40417695D02*
X75410286Y-40322457D01*
X75410286Y-40322457D02*
X75457905Y-40274838D01*
X75457905Y-40274838D02*
X75553143Y-40227219D01*
X75553143Y-40227219D02*
X75791238Y-40227219D01*
X75791238Y-40227219D02*
X75934095Y-40274838D01*
X76267429Y-40227219D02*
X76505524Y-41227219D01*
X76505524Y-41227219D02*
X76696000Y-40512933D01*
X76696000Y-40512933D02*
X76886476Y-41227219D01*
X76886476Y-41227219D02*
X77124572Y-40227219D01*
X77457905Y-40322457D02*
X77505524Y-40274838D01*
X77505524Y-40274838D02*
X77600762Y-40227219D01*
X77600762Y-40227219D02*
X77838857Y-40227219D01*
X77838857Y-40227219D02*
X77934095Y-40274838D01*
X77934095Y-40274838D02*
X77981714Y-40322457D01*
X77981714Y-40322457D02*
X78029333Y-40417695D01*
X78029333Y-40417695D02*
X78029333Y-40512933D01*
X78029333Y-40512933D02*
X77981714Y-40655790D01*
X77981714Y-40655790D02*
X77410286Y-41227219D01*
X77410286Y-41227219D02*
X78029333Y-41227219D01*
X75362667Y-25629600D02*
X75505524Y-25677219D01*
X75505524Y-25677219D02*
X75743619Y-25677219D01*
X75743619Y-25677219D02*
X75838857Y-25629600D01*
X75838857Y-25629600D02*
X75886476Y-25581980D01*
X75886476Y-25581980D02*
X75934095Y-25486742D01*
X75934095Y-25486742D02*
X75934095Y-25391504D01*
X75934095Y-25391504D02*
X75886476Y-25296266D01*
X75886476Y-25296266D02*
X75838857Y-25248647D01*
X75838857Y-25248647D02*
X75743619Y-25201028D01*
X75743619Y-25201028D02*
X75553143Y-25153409D01*
X75553143Y-25153409D02*
X75457905Y-25105790D01*
X75457905Y-25105790D02*
X75410286Y-25058171D01*
X75410286Y-25058171D02*
X75362667Y-24962933D01*
X75362667Y-24962933D02*
X75362667Y-24867695D01*
X75362667Y-24867695D02*
X75410286Y-24772457D01*
X75410286Y-24772457D02*
X75457905Y-24724838D01*
X75457905Y-24724838D02*
X75553143Y-24677219D01*
X75553143Y-24677219D02*
X75791238Y-24677219D01*
X75791238Y-24677219D02*
X75934095Y-24724838D01*
X76267429Y-24677219D02*
X76505524Y-25677219D01*
X76505524Y-25677219D02*
X76696000Y-24962933D01*
X76696000Y-24962933D02*
X76886476Y-25677219D01*
X76886476Y-25677219D02*
X77124572Y-24677219D01*
X78029333Y-25677219D02*
X77457905Y-25677219D01*
X77743619Y-25677219D02*
X77743619Y-24677219D01*
X77743619Y-24677219D02*
X77648381Y-24820076D01*
X77648381Y-24820076D02*
X77553143Y-24915314D01*
X77553143Y-24915314D02*
X77457905Y-24962933D01*
X133521561Y-33553219D02*
X133188228Y-33077028D01*
X132950133Y-33553219D02*
X132950133Y-32553219D01*
X132950133Y-32553219D02*
X133331085Y-32553219D01*
X133331085Y-32553219D02*
X133426323Y-32600838D01*
X133426323Y-32600838D02*
X133473942Y-32648457D01*
X133473942Y-32648457D02*
X133521561Y-32743695D01*
X133521561Y-32743695D02*
X133521561Y-32886552D01*
X133521561Y-32886552D02*
X133473942Y-32981790D01*
X133473942Y-32981790D02*
X133426323Y-33029409D01*
X133426323Y-33029409D02*
X133331085Y-33077028D01*
X133331085Y-33077028D02*
X132950133Y-33077028D01*
X133807276Y-32553219D02*
X134140609Y-33553219D01*
X134140609Y-33553219D02*
X134473942Y-32553219D01*
X135331085Y-33553219D02*
X134759657Y-33553219D01*
X135045371Y-33553219D02*
X135045371Y-32553219D01*
X135045371Y-32553219D02*
X134950133Y-32696076D01*
X134950133Y-32696076D02*
X134854895Y-32791314D01*
X134854895Y-32791314D02*
X134759657Y-32838933D01*
X134693066Y-35428819D02*
X134693066Y-36143104D01*
X134693066Y-36143104D02*
X134645447Y-36285961D01*
X134645447Y-36285961D02*
X134550209Y-36381200D01*
X134550209Y-36381200D02*
X134407352Y-36428819D01*
X134407352Y-36428819D02*
X134312114Y-36428819D01*
X135074019Y-35428819D02*
X135693066Y-35428819D01*
X135693066Y-35428819D02*
X135359733Y-35809771D01*
X135359733Y-35809771D02*
X135502590Y-35809771D01*
X135502590Y-35809771D02*
X135597828Y-35857390D01*
X135597828Y-35857390D02*
X135645447Y-35905009D01*
X135645447Y-35905009D02*
X135693066Y-36000247D01*
X135693066Y-36000247D02*
X135693066Y-36238342D01*
X135693066Y-36238342D02*
X135645447Y-36333580D01*
X135645447Y-36333580D02*
X135597828Y-36381200D01*
X135597828Y-36381200D02*
X135502590Y-36428819D01*
X135502590Y-36428819D02*
X135216876Y-36428819D01*
X135216876Y-36428819D02*
X135121638Y-36381200D01*
X135121638Y-36381200D02*
X135074019Y-36333580D01*
X123969542Y-30695580D02*
X123921923Y-30743200D01*
X123921923Y-30743200D02*
X123779066Y-30790819D01*
X123779066Y-30790819D02*
X123683828Y-30790819D01*
X123683828Y-30790819D02*
X123540971Y-30743200D01*
X123540971Y-30743200D02*
X123445733Y-30647961D01*
X123445733Y-30647961D02*
X123398114Y-30552723D01*
X123398114Y-30552723D02*
X123350495Y-30362247D01*
X123350495Y-30362247D02*
X123350495Y-30219390D01*
X123350495Y-30219390D02*
X123398114Y-30028914D01*
X123398114Y-30028914D02*
X123445733Y-29933676D01*
X123445733Y-29933676D02*
X123540971Y-29838438D01*
X123540971Y-29838438D02*
X123683828Y-29790819D01*
X123683828Y-29790819D02*
X123779066Y-29790819D01*
X123779066Y-29790819D02*
X123921923Y-29838438D01*
X123921923Y-29838438D02*
X123969542Y-29886057D01*
X124921923Y-30790819D02*
X124350495Y-30790819D01*
X124636209Y-30790819D02*
X124636209Y-29790819D01*
X124636209Y-29790819D02*
X124540971Y-29933676D01*
X124540971Y-29933676D02*
X124445733Y-30028914D01*
X124445733Y-30028914D02*
X124350495Y-30076533D01*
X125779066Y-29790819D02*
X125588590Y-29790819D01*
X125588590Y-29790819D02*
X125493352Y-29838438D01*
X125493352Y-29838438D02*
X125445733Y-29886057D01*
X125445733Y-29886057D02*
X125350495Y-30028914D01*
X125350495Y-30028914D02*
X125302876Y-30219390D01*
X125302876Y-30219390D02*
X125302876Y-30600342D01*
X125302876Y-30600342D02*
X125350495Y-30695580D01*
X125350495Y-30695580D02*
X125398114Y-30743200D01*
X125398114Y-30743200D02*
X125493352Y-30790819D01*
X125493352Y-30790819D02*
X125683828Y-30790819D01*
X125683828Y-30790819D02*
X125779066Y-30743200D01*
X125779066Y-30743200D02*
X125826685Y-30695580D01*
X125826685Y-30695580D02*
X125874304Y-30600342D01*
X125874304Y-30600342D02*
X125874304Y-30362247D01*
X125874304Y-30362247D02*
X125826685Y-30267009D01*
X125826685Y-30267009D02*
X125779066Y-30219390D01*
X125779066Y-30219390D02*
X125683828Y-30171771D01*
X125683828Y-30171771D02*
X125493352Y-30171771D01*
X125493352Y-30171771D02*
X125398114Y-30219390D01*
X125398114Y-30219390D02*
X125350495Y-30267009D01*
X125350495Y-30267009D02*
X125302876Y-30362247D01*
X88612742Y-31847180D02*
X88565123Y-31894800D01*
X88565123Y-31894800D02*
X88422266Y-31942419D01*
X88422266Y-31942419D02*
X88327028Y-31942419D01*
X88327028Y-31942419D02*
X88184171Y-31894800D01*
X88184171Y-31894800D02*
X88088933Y-31799561D01*
X88088933Y-31799561D02*
X88041314Y-31704323D01*
X88041314Y-31704323D02*
X87993695Y-31513847D01*
X87993695Y-31513847D02*
X87993695Y-31370990D01*
X87993695Y-31370990D02*
X88041314Y-31180514D01*
X88041314Y-31180514D02*
X88088933Y-31085276D01*
X88088933Y-31085276D02*
X88184171Y-30990038D01*
X88184171Y-30990038D02*
X88327028Y-30942419D01*
X88327028Y-30942419D02*
X88422266Y-30942419D01*
X88422266Y-30942419D02*
X88565123Y-30990038D01*
X88565123Y-30990038D02*
X88612742Y-31037657D01*
X89565123Y-31942419D02*
X88993695Y-31942419D01*
X89279409Y-31942419D02*
X89279409Y-30942419D01*
X89279409Y-30942419D02*
X89184171Y-31085276D01*
X89184171Y-31085276D02*
X89088933Y-31180514D01*
X89088933Y-31180514D02*
X88993695Y-31228133D01*
X90469885Y-30942419D02*
X89993695Y-30942419D01*
X89993695Y-30942419D02*
X89946076Y-31418609D01*
X89946076Y-31418609D02*
X89993695Y-31370990D01*
X89993695Y-31370990D02*
X90088933Y-31323371D01*
X90088933Y-31323371D02*
X90327028Y-31323371D01*
X90327028Y-31323371D02*
X90422266Y-31370990D01*
X90422266Y-31370990D02*
X90469885Y-31418609D01*
X90469885Y-31418609D02*
X90517504Y-31513847D01*
X90517504Y-31513847D02*
X90517504Y-31751942D01*
X90517504Y-31751942D02*
X90469885Y-31847180D01*
X90469885Y-31847180D02*
X90422266Y-31894800D01*
X90422266Y-31894800D02*
X90327028Y-31942419D01*
X90327028Y-31942419D02*
X90088933Y-31942419D01*
X90088933Y-31942419D02*
X89993695Y-31894800D01*
X89993695Y-31894800D02*
X89946076Y-31847180D01*
X109796342Y-55799180D02*
X109748723Y-55846800D01*
X109748723Y-55846800D02*
X109605866Y-55894419D01*
X109605866Y-55894419D02*
X109510628Y-55894419D01*
X109510628Y-55894419D02*
X109367771Y-55846800D01*
X109367771Y-55846800D02*
X109272533Y-55751561D01*
X109272533Y-55751561D02*
X109224914Y-55656323D01*
X109224914Y-55656323D02*
X109177295Y-55465847D01*
X109177295Y-55465847D02*
X109177295Y-55322990D01*
X109177295Y-55322990D02*
X109224914Y-55132514D01*
X109224914Y-55132514D02*
X109272533Y-55037276D01*
X109272533Y-55037276D02*
X109367771Y-54942038D01*
X109367771Y-54942038D02*
X109510628Y-54894419D01*
X109510628Y-54894419D02*
X109605866Y-54894419D01*
X109605866Y-54894419D02*
X109748723Y-54942038D01*
X109748723Y-54942038D02*
X109796342Y-54989657D01*
X110748723Y-55894419D02*
X110177295Y-55894419D01*
X110463009Y-55894419D02*
X110463009Y-54894419D01*
X110463009Y-54894419D02*
X110367771Y-55037276D01*
X110367771Y-55037276D02*
X110272533Y-55132514D01*
X110272533Y-55132514D02*
X110177295Y-55180133D01*
X111367771Y-54894419D02*
X111463009Y-54894419D01*
X111463009Y-54894419D02*
X111558247Y-54942038D01*
X111558247Y-54942038D02*
X111605866Y-54989657D01*
X111605866Y-54989657D02*
X111653485Y-55084895D01*
X111653485Y-55084895D02*
X111701104Y-55275371D01*
X111701104Y-55275371D02*
X111701104Y-55513466D01*
X111701104Y-55513466D02*
X111653485Y-55703942D01*
X111653485Y-55703942D02*
X111605866Y-55799180D01*
X111605866Y-55799180D02*
X111558247Y-55846800D01*
X111558247Y-55846800D02*
X111463009Y-55894419D01*
X111463009Y-55894419D02*
X111367771Y-55894419D01*
X111367771Y-55894419D02*
X111272533Y-55846800D01*
X111272533Y-55846800D02*
X111224914Y-55799180D01*
X111224914Y-55799180D02*
X111177295Y-55703942D01*
X111177295Y-55703942D02*
X111129676Y-55513466D01*
X111129676Y-55513466D02*
X111129676Y-55275371D01*
X111129676Y-55275371D02*
X111177295Y-55084895D01*
X111177295Y-55084895D02*
X111224914Y-54989657D01*
X111224914Y-54989657D02*
X111272533Y-54942038D01*
X111272533Y-54942038D02*
X111367771Y-54894419D01*
X138569580Y-41431466D02*
X138617200Y-41479085D01*
X138617200Y-41479085D02*
X138664819Y-41621942D01*
X138664819Y-41621942D02*
X138664819Y-41717180D01*
X138664819Y-41717180D02*
X138617200Y-41860037D01*
X138617200Y-41860037D02*
X138521961Y-41955275D01*
X138521961Y-41955275D02*
X138426723Y-42002894D01*
X138426723Y-42002894D02*
X138236247Y-42050513D01*
X138236247Y-42050513D02*
X138093390Y-42050513D01*
X138093390Y-42050513D02*
X137902914Y-42002894D01*
X137902914Y-42002894D02*
X137807676Y-41955275D01*
X137807676Y-41955275D02*
X137712438Y-41860037D01*
X137712438Y-41860037D02*
X137664819Y-41717180D01*
X137664819Y-41717180D02*
X137664819Y-41621942D01*
X137664819Y-41621942D02*
X137712438Y-41479085D01*
X137712438Y-41479085D02*
X137760057Y-41431466D01*
X137998152Y-40574323D02*
X138664819Y-40574323D01*
X137617200Y-40812418D02*
X138331485Y-41050513D01*
X138331485Y-41050513D02*
X138331485Y-40431466D01*
X124496533Y-45529180D02*
X124448914Y-45576800D01*
X124448914Y-45576800D02*
X124306057Y-45624419D01*
X124306057Y-45624419D02*
X124210819Y-45624419D01*
X124210819Y-45624419D02*
X124067962Y-45576800D01*
X124067962Y-45576800D02*
X123972724Y-45481561D01*
X123972724Y-45481561D02*
X123925105Y-45386323D01*
X123925105Y-45386323D02*
X123877486Y-45195847D01*
X123877486Y-45195847D02*
X123877486Y-45052990D01*
X123877486Y-45052990D02*
X123925105Y-44862514D01*
X123925105Y-44862514D02*
X123972724Y-44767276D01*
X123972724Y-44767276D02*
X124067962Y-44672038D01*
X124067962Y-44672038D02*
X124210819Y-44624419D01*
X124210819Y-44624419D02*
X124306057Y-44624419D01*
X124306057Y-44624419D02*
X124448914Y-44672038D01*
X124448914Y-44672038D02*
X124496533Y-44719657D01*
X124877486Y-44719657D02*
X124925105Y-44672038D01*
X124925105Y-44672038D02*
X125020343Y-44624419D01*
X125020343Y-44624419D02*
X125258438Y-44624419D01*
X125258438Y-44624419D02*
X125353676Y-44672038D01*
X125353676Y-44672038D02*
X125401295Y-44719657D01*
X125401295Y-44719657D02*
X125448914Y-44814895D01*
X125448914Y-44814895D02*
X125448914Y-44910133D01*
X125448914Y-44910133D02*
X125401295Y-45052990D01*
X125401295Y-45052990D02*
X124829867Y-45624419D01*
X124829867Y-45624419D02*
X125448914Y-45624419D01*
X124445733Y-40499980D02*
X124398114Y-40547600D01*
X124398114Y-40547600D02*
X124255257Y-40595219D01*
X124255257Y-40595219D02*
X124160019Y-40595219D01*
X124160019Y-40595219D02*
X124017162Y-40547600D01*
X124017162Y-40547600D02*
X123921924Y-40452361D01*
X123921924Y-40452361D02*
X123874305Y-40357123D01*
X123874305Y-40357123D02*
X123826686Y-40166647D01*
X123826686Y-40166647D02*
X123826686Y-40023790D01*
X123826686Y-40023790D02*
X123874305Y-39833314D01*
X123874305Y-39833314D02*
X123921924Y-39738076D01*
X123921924Y-39738076D02*
X124017162Y-39642838D01*
X124017162Y-39642838D02*
X124160019Y-39595219D01*
X124160019Y-39595219D02*
X124255257Y-39595219D01*
X124255257Y-39595219D02*
X124398114Y-39642838D01*
X124398114Y-39642838D02*
X124445733Y-39690457D01*
X125398114Y-40595219D02*
X124826686Y-40595219D01*
X125112400Y-40595219D02*
X125112400Y-39595219D01*
X125112400Y-39595219D02*
X125017162Y-39738076D01*
X125017162Y-39738076D02*
X124921924Y-39833314D01*
X124921924Y-39833314D02*
X124826686Y-39880933D01*
X127869619Y-28019333D02*
X128583904Y-28019333D01*
X128583904Y-28019333D02*
X128726761Y-28066952D01*
X128726761Y-28066952D02*
X128822000Y-28162190D01*
X128822000Y-28162190D02*
X128869619Y-28305047D01*
X128869619Y-28305047D02*
X128869619Y-28400285D01*
X128869619Y-27019333D02*
X128869619Y-27590761D01*
X128869619Y-27305047D02*
X127869619Y-27305047D01*
X127869619Y-27305047D02*
X128012476Y-27400285D01*
X128012476Y-27400285D02*
X128107714Y-27495523D01*
X128107714Y-27495523D02*
X128155333Y-27590761D01*
D12*
X124722400Y-53026800D02*
X124722400Y-54406800D01*
X123342400Y-53026800D02*
X124722400Y-53026800D01*
X122072400Y-53026800D02*
X116882400Y-53026800D01*
X122072400Y-53026800D02*
X122072400Y-55786800D01*
X116882400Y-53026800D02*
X116882400Y-55786800D01*
X122072400Y-55786800D02*
X116882400Y-55786800D01*
X117153200Y-63916800D02*
X115773200Y-63916800D01*
X117153200Y-62536800D02*
X117153200Y-63916800D01*
X117153200Y-61266800D02*
X117153200Y-58616800D01*
X117153200Y-61266800D02*
X114393200Y-61266800D01*
X117153200Y-58616800D02*
X114393200Y-58616800D01*
X114393200Y-61266800D02*
X114393200Y-58616800D01*
D13*
X103935600Y-66511000D02*
X103935600Y-64561000D01*
X110285600Y-64211000D02*
X103785600Y-64211000D01*
X110285600Y-60761000D02*
X110285600Y-64211000D01*
X103785600Y-60761000D02*
X110285600Y-60761000D01*
X103785600Y-64211000D02*
X103785600Y-60761000D01*
D12*
X106421000Y-67962000D02*
X109071000Y-67962000D01*
X109071000Y-70722000D02*
X109071000Y-67962000D01*
X106421000Y-70722000D02*
X106421000Y-67962000D01*
X106421000Y-70722000D02*
X109071000Y-70722000D01*
X105151000Y-70722000D02*
X103771000Y-70722000D01*
X103771000Y-70722000D02*
X103771000Y-69342000D01*
X107891948Y-39041400D02*
X108414452Y-39041400D01*
X107891948Y-40511400D02*
X108414452Y-40511400D01*
D13*
X104568600Y-42973800D02*
X113868600Y-42973800D01*
X113868600Y-42973800D02*
X113868600Y-52273800D01*
X113868600Y-52273800D02*
X104568600Y-52273800D01*
X104568600Y-52273800D02*
X104568600Y-42973800D01*
D14*
X103118600Y-43123800D02*
G75*
G02*
X102868600Y-43123800I-125000J0D01*
G01*
X102868600Y-43123800D02*
G75*
G02*
X103118600Y-43123800I125000J0D01*
G01*
D12*
X97653464Y-43133600D02*
X96199336Y-43133600D01*
X97653464Y-44953600D02*
X96199336Y-44953600D01*
X95860841Y-54382400D02*
X95553559Y-54382400D01*
X95860841Y-55142400D02*
X95553559Y-55142400D01*
X88940000Y-58078400D02*
X93740000Y-58078400D01*
X88940000Y-58888400D02*
X88940000Y-58078400D01*
X89140000Y-61098400D02*
X93740000Y-61098400D01*
X88942800Y-63088800D02*
X93742800Y-63088800D01*
X88942800Y-63898800D02*
X88942800Y-63088800D01*
X89142800Y-66108800D02*
X93742800Y-66108800D01*
X88993600Y-52795200D02*
X93793600Y-52795200D01*
X88993600Y-53605200D02*
X88993600Y-52795200D01*
X89193600Y-55815200D02*
X93793600Y-55815200D01*
X95553559Y-60578000D02*
X95860841Y-60578000D01*
X95553559Y-59818000D02*
X95860841Y-59818000D01*
X95553559Y-65454800D02*
X95860841Y-65454800D01*
X95553559Y-64694800D02*
X95860841Y-64694800D01*
X100330759Y-47065200D02*
X100638041Y-47065200D01*
X100330759Y-46305200D02*
X100638041Y-46305200D01*
X123135800Y-40766200D02*
X123135800Y-47016200D01*
X118265800Y-47016200D02*
X118265800Y-40766200D01*
X118265800Y-40766200D02*
G75*
G02*
X123135800Y-40766200I2435000J0D01*
G01*
X123135800Y-47016200D02*
G75*
G02*
X118265800Y-47016200I-2435000J0D01*
G01*
X71006000Y-58122400D02*
X71006000Y-60632400D01*
X71006000Y-58122400D02*
X83226000Y-58122400D01*
X71006000Y-62932400D02*
X71006000Y-65532400D01*
X71006000Y-67832400D02*
X71006000Y-70342400D01*
X83226000Y-58122400D02*
X83226000Y-60632400D01*
X83226000Y-62932400D02*
X83226000Y-65532400D01*
X83226000Y-67832400D02*
X83226000Y-70342400D01*
X83226000Y-70342400D02*
X71006000Y-70342400D01*
X80666000Y-64232400D02*
G75*
G02*
X73566000Y-64232400I-3550000J0D01*
G01*
X73566000Y-64232400D02*
G75*
G02*
X80666000Y-64232400I3550000J0D01*
G01*
X71006000Y-42572400D02*
X71006000Y-45082400D01*
X71006000Y-42572400D02*
X83226000Y-42572400D01*
X71006000Y-47382400D02*
X71006000Y-49982400D01*
X71006000Y-52282400D02*
X71006000Y-54792400D01*
X83226000Y-42572400D02*
X83226000Y-45082400D01*
X83226000Y-47382400D02*
X83226000Y-49982400D01*
X83226000Y-52282400D02*
X83226000Y-54792400D01*
X83226000Y-54792400D02*
X71006000Y-54792400D01*
X80666000Y-48682400D02*
G75*
G02*
X73566000Y-48682400I-3550000J0D01*
G01*
X73566000Y-48682400D02*
G75*
G02*
X80666000Y-48682400I3550000J0D01*
G01*
X71006000Y-27022400D02*
X71006000Y-29532400D01*
X71006000Y-27022400D02*
X83226000Y-27022400D01*
X71006000Y-31832400D02*
X71006000Y-34432400D01*
X71006000Y-36732400D02*
X71006000Y-39242400D01*
X83226000Y-27022400D02*
X83226000Y-29532400D01*
X83226000Y-31832400D02*
X83226000Y-34432400D01*
X83226000Y-36732400D02*
X83226000Y-39242400D01*
X83226000Y-39242400D02*
X71006000Y-39242400D01*
X80666000Y-33132400D02*
G75*
G02*
X73566000Y-33132400I-3550000J0D01*
G01*
X73566000Y-33132400D02*
G75*
G02*
X80666000Y-33132400I3550000J0D01*
G01*
X137726800Y-28738400D02*
X137726800Y-28188400D01*
X137726800Y-28188400D02*
X131106800Y-28188400D01*
X137526800Y-31908400D02*
X131306800Y-31908400D01*
X137526800Y-30658400D02*
X137526800Y-31898400D01*
X136016800Y-30608400D02*
X132216800Y-30608400D01*
X135626800Y-28188400D02*
X135626800Y-26488400D01*
X135626800Y-26488400D02*
X135056800Y-26488400D01*
X133776800Y-26488400D02*
X133206800Y-26488400D01*
X133206800Y-28188400D02*
X133206800Y-26488400D01*
X131626800Y-30608400D02*
X131106800Y-30608400D01*
X131306800Y-31908400D02*
X131306800Y-30608400D01*
X131106800Y-30608400D02*
X131106800Y-30218400D01*
X131106800Y-28188400D02*
X131106800Y-29178400D01*
X133646400Y-36974000D02*
X135026400Y-36974000D01*
X133646400Y-38354000D02*
X133646400Y-36974000D01*
X133646400Y-39624000D02*
X133646400Y-49894000D01*
X133646400Y-39624000D02*
X136406400Y-39624000D01*
X133646400Y-49894000D02*
X136406400Y-49894000D01*
X136406400Y-39624000D02*
X136406400Y-49894000D01*
X124606164Y-31491600D02*
X124821836Y-31491600D01*
X124606164Y-32211600D02*
X124821836Y-32211600D01*
X89363436Y-30687600D02*
X89147764Y-30687600D01*
X89363436Y-29967600D02*
X89147764Y-29967600D01*
X124555364Y-45969600D02*
X124771036Y-45969600D01*
X124555364Y-46689600D02*
X124771036Y-46689600D01*
X124504564Y-40940400D02*
X124720236Y-40940400D01*
X124504564Y-41660400D02*
X124720236Y-41660400D01*
X127414800Y-26306000D02*
X127414800Y-27686000D01*
X126034800Y-26306000D02*
X127414800Y-26306000D01*
X124764800Y-26306000D02*
X86554800Y-26306000D01*
X124764800Y-26306000D02*
X124764800Y-29066000D01*
X86554800Y-26306000D02*
X86554800Y-29066000D01*
X124764800Y-29066000D02*
X86554800Y-29066000D01*
M02*
