M48
; DRILL file {KiCad 9.0.6} date 2026-02-28T01:29:00-0500
; FORMAT={-:-/ absolute / metric / decimal}
; #@! TF.CreationDate,2026-02-28T01:29:00-05:00
; #@! TF.GenerationSoftware,Kicad,Pcbnew,9.0.6
; #@! TF.FileFunction,Plated,1,2,PTH
FMAT,2
METRIC
; #@! TA.AperFunction,Plated,PTH,ViaDrill
T1C0.300
; #@! TA.AperFunction,Plated,PTH,ComponentDrill
T2C0.800
; #@! TA.AperFunction,Plated,PTH,ComponentDrill
T3C1.000
; #@! TA.AperFunction,Plated,PTH,ComponentDrill
T4C1.300
%
G90
G05
T1
X86.258Y-27.788
X90.1Y-59.588
X90.103Y-64.599
X90.154Y-54.305
X98.704Y-48.362
X101.397Y-44.653
X101.448Y-47.752
X102.616Y-65.227
X105.09Y-56.49
X107.036Y-65.536
X107.203Y-39.776
X107.239Y-54.864
X111.557Y-56.337
X113.436Y-65.43
X113.787Y-55.22
X116.434Y-47.295
X117.754Y-48.819
X117.805Y-50.495
X125.882Y-41.351
X125.984Y-46.38
X126.238Y-32.055
X127.0Y-29.82
X137.262Y-42.316
T2
X120.701Y-41.441
X120.701Y-46.341
T3
X87.935Y-27.686
X90.475Y-27.686
X93.015Y-27.686
X95.555Y-27.686
X98.095Y-27.686
X100.635Y-27.686
X103.175Y-27.686
X105.151Y-69.342
X105.715Y-27.686
X107.691Y-69.342
X108.255Y-27.686
X110.795Y-27.686
X113.335Y-27.686
X115.773Y-59.997
X115.773Y-62.537
X115.875Y-27.686
X118.262Y-54.407
X118.415Y-27.686
X120.802Y-54.407
X120.955Y-27.686
X123.342Y-54.407
X123.495Y-27.686
X126.035Y-27.686
X131.917Y-29.698
X134.417Y-27.198
X135.026Y-38.354
X135.026Y-40.894
X135.026Y-43.434
X135.026Y-45.974
X135.026Y-48.514
X136.917Y-29.698
T4
X70.866Y-30.632
X70.866Y-35.632
X70.866Y-46.182
X70.866Y-51.182
X70.866Y-61.732
X70.866Y-66.732
X83.366Y-30.632
X83.366Y-35.632
X83.366Y-46.182
X83.366Y-51.182
X83.366Y-61.732
X83.366Y-66.732
M30
