G04 #@! TF.GenerationSoftware,KiCad,Pcbnew,9.0.6*
G04 #@! TF.CreationDate,2026-02-28T01:29:14-05:00*
G04 #@! TF.ProjectId,Main,4d61696e-2e6b-4696-9361-645f70636258,rev?*
G04 #@! TF.SameCoordinates,Original*
G04 #@! TF.FileFunction,Soldermask,Bot*
G04 #@! TF.FilePolarity,Negative*
%FSLAX46Y46*%
G04 Gerber Fmt 4.6, Leading zero omitted, Abs format (unit mm)*
G04 Created by KiCad (PCBNEW 9.0.6) date 2026-02-28 01:29:14*
%MOMM*%
%LPD*%
G01*
G04 APERTURE LIST*
%ADD10R,1.700000X1.700000*%
%ADD11C,1.700000*%
%ADD12C,1.500000*%
%ADD13O,3.200000X1.900000*%
%ADD14R,1.550000X1.550000*%
%ADD15C,1.550000*%
G04 APERTURE END LIST*
D10*
X123342400Y-54406800D03*
D11*
X120802400Y-54406800D03*
X118262400Y-54406800D03*
D10*
X115773200Y-62536800D03*
D11*
X115773200Y-59996800D03*
X107691000Y-69342000D03*
D10*
X105151000Y-69342000D03*
D12*
X120700800Y-41441200D03*
X120700800Y-46341200D03*
D13*
X70866000Y-61732400D03*
X83366000Y-61732400D03*
X70866000Y-66732400D03*
X83366000Y-66732400D03*
X70866000Y-46182400D03*
X83366000Y-46182400D03*
X70866000Y-51182400D03*
X83366000Y-51182400D03*
X70866000Y-30632400D03*
X83366000Y-30632400D03*
X70866000Y-35632400D03*
X83366000Y-35632400D03*
D14*
X136916800Y-29698400D03*
D15*
X134416800Y-27198400D03*
X131916800Y-29698400D03*
D10*
X135026400Y-38354000D03*
D11*
X135026400Y-40894000D03*
X135026400Y-43434000D03*
X135026400Y-45974000D03*
X135026400Y-48514000D03*
D10*
X126034800Y-27686000D03*
D11*
X123494800Y-27686000D03*
X120954800Y-27686000D03*
X118414800Y-27686000D03*
X115874800Y-27686000D03*
X113334800Y-27686000D03*
X110794800Y-27686000D03*
X108254800Y-27686000D03*
X105714800Y-27686000D03*
X103174800Y-27686000D03*
X100634800Y-27686000D03*
X98094800Y-27686000D03*
X95554800Y-27686000D03*
X93014800Y-27686000D03*
X90474800Y-27686000D03*
X87934800Y-27686000D03*
M02*
